# xmcd CD database file
#
# Track frame offsets:
#	150
#	13580
#	25015
#	38758
#	51177
#	65159
#	82274
#	94422
#
# Disc length: 1418 seconds
#
# Revision: 0
# Processed by: cddbd v1.5.2PL0 Copyright (c) Steve Scherf et al.
# Submitted via: CDex 1.70beta2
#
DISCID=67058808
DTITLE=Divers - Jazzmag n°617 - 09-2010 - 1951, avis de vent frais
DYEAR=2010
DGENRE=Jazz
TTITLE0=Lee Konitz - Ezz-Thetic
TTITLE1=Zoot Sims - Swinging the blues
TTITLE2=Stan Getz - Yvette
TTITLE3=Paul Quinichette - Cross fire
TTITLE4=Art Pepper - Over the rainbow
TTITLE5=Bob Cooper - Coop's solo
TTITLE6=Paul Desmond - Frenesi
TTITLE7=Art Pepper and Bob Cooper -Pooch McGough
EXTD=YEAR: 2010
EXTT0=
EXTT1=
EXTT2=
EXTT3=
EXTT4=
EXTT5=
EXTT6=
EXTT7=
PLAYORDER=
